<?xml version="1.0" encoding="UTF-8" standalone="no"?>
<!-- Created with Inkscape (http://www.inkscape.org/) -->

<svg
   width="150mm"
   height="54.999996mm"
   viewBox="0 0 150 54.999997"
   version="1.1"
   id="svg7355"
   xml:space="preserve"
   xmlns="http://www.w3.org/2000/svg"
   xmlns:svg="http://www.w3.org/2000/svg"><defs
     id="defs7352"><rect
       x="136.51279"
       y="46.741749"
       width="144.5414"
       height="77.248749"
       id="rect291" /></defs><g
     id="layer1"><g
       id="layer1-5"
       transform="matrix(0.12290379,0,0,0.12290379,9.5471409,11.240852)"><path
         style="fill:#505ced;fill-opacity:1;stroke:none;stroke-width:0.925094"
         d="m 78.458252,122.33417 c -0.773806,34.45134 5.853452,62.51181 32.201968,87.02789 20.78346,19.33806 93.42895,35.83496 94.891,32.50739 C 91.192101,170.1045 222.64216,75.521418 159.38677,36.300986 83.16136,39.00577 79.161256,91.03507 78.458252,122.33417 Z"
         id="path1830" /><path
         style="display:inline;fill:#508fed;fill-opacity:1;stroke:none;stroke-width:0.746001"
         d="m 166.44475,36.667985 c 0,0 34.31976,11.006083 55.62947,31.355655 17.51396,16.724839 2.11911,44.81364 6.59731,47.78364 7.07038,4.68918 25.91826,1.39193 30.7115,12.54419 -8.24969,68.49325 -88.16683,29.52368 -116.01462,15.62044 -19.22539,-9.59843 -7.19149,-52.512698 -0.35456,-63.766315 13.49901,-22.219432 23.4309,-43.53761 23.4309,-43.53761 z"
         id="path1832" /><path
         style="display:inline;fill:#63219c;fill-opacity:1;stroke:none;stroke-width:0.519394"
         d="M 143.4449,80.068987 C 159.56224,70.582753 178.71373,47.968631 167.04819,37.021321 148.12613,20.5821 93.211206,22.062064 82.176601,22.548078 72.339565,22.981346 3.6012891,93.791898 5.228737,95.752343 6.85618,97.71278 67.754117,72.215768 89.288216,69.485902 110.82822,66.755291 138.99909,81.463621 143.4449,80.068987 Z"
         id="path2614" /></g><g
       aria-label="vore"
       transform="matrix(0.26458333,0,0,0.26458333,7.9359343,0.45390011)"
       id="text289"
       style="font-size:42.6667px;font-family:'DejaVu Sans Mono';-inkscape-font-specification:'DejaVu Sans Mono';word-spacing:0px;white-space:pre;shape-inside:url(#rect291);display:inline;fill:#000000;fill-opacity:1;stroke-width:2.81953"><path
         d="m 170.94567,71.832088 q 0.64,0 0.832,0.448 0.256,0.448 0.064,1.024 l -12.672,31.104002 q -0.576,1.344 -2.048,1.344 h -4.544 q -1.536,0 -2.048,-1.344 l -12.608,-31.040002 q -0.256,-0.64 0,-1.088 0.32,-0.448 0.96,-0.448 h 8.128 q 0.512,0 0.896,0.32 0.384,0.256 0.512,0.768 l 7.36,18.88 q 0.448,1.216 1.024,-0.064 l 7.232,-18.88 q 0.192,-0.448 0.512,-0.704 0.384,-0.32 0.896,-0.32 z"
         style="font-weight:bold;font-size:64px;font-family:'Libre Franklin';-inkscape-font-specification:'Libre Franklin Bold';fill:#000000;fill-opacity:1"
         id="path1233" /><path
         d="m 190.12965,106.39209 q -5.056,0 -8.96,-2.24 -3.84,-2.24 -6.016,-6.144002 -2.176,-3.968 -2.176,-9.024 0,-5.312 2.24,-9.28 2.24,-4.032 6.144,-6.272 3.904,-2.24 8.832,-2.24 5.184,0 9.024,2.304 3.84,2.24 5.952,6.272 2.176,3.968 2.176,9.152 0,5.12 -2.176,9.088 -2.176,3.904002 -6.08,6.144002 -3.84,2.24 -8.96,2.24 z m 0.064,-6.528002 q 2.368,0 3.968,-1.216 1.6,-1.28 2.368,-3.776 0.832,-2.496 0.832,-6.08 0,-3.776 -0.832,-6.208 -0.768,-2.496 -2.368,-3.776 -1.6,-1.28 -3.968,-1.28 -2.304,0 -3.968,1.28 -1.6,1.28 -2.432,3.776 -0.832,2.432 -0.832,6.208 0,3.648 0.832,6.144 0.832,2.432 2.432,3.712 1.664,1.216 3.968,1.216 z"
         style="font-weight:bold;font-size:64px;font-family:'Libre Franklin';-inkscape-font-specification:'Libre Franklin Bold';fill:#000000;fill-opacity:1"
         id="path1235" /><path
         d="m 214.19371,105.75209 q -0.704,0 -1.024,-0.32 -0.32,-0.32 -0.32,-0.96 V 73.048088 q 0,-1.216 1.024,-1.216 h 7.488 q 1.024,0 1.024,1.088 v 3.776 q 0,0.384 0.256,0.512 0.32,0.064 0.64,-0.32 1.28,-1.728 2.88,-3.008 1.664,-1.28 3.392,-1.984 1.728,-0.704 3.264,-0.704 2.304,0 2.304,1.088 v 7.424 q 0,1.024 -0.96,0.832 -1.152,-0.32 -2.368,-0.384 -1.216,-0.128 -2.112,-0.128 -1.152,0 -2.432,0.448 -1.216,0.448 -2.24,1.28 -1.024,0.832 -1.664,1.792 -0.64,0.96 -0.64,2.048 v 18.688002 q 0,1.472 -1.664,1.472 z"
         style="font-weight:bold;font-size:64px;font-family:'Libre Franklin';-inkscape-font-specification:'Libre Franklin Bold';fill:#000000;fill-opacity:1"
         id="path1237" /><path
         d="m 247.65768,91.672088 q 0,2.368 1.088,4.224 1.152,1.792 3.008,2.816 1.92,0.96 4.288,0.96 2.304,0 4.224,-0.96 1.984,-1.024 3.968,-3.328 0.256,-0.256 0.448,-0.256 0.192,-0.064 0.704,0.192 l 4.608,1.92 q 0.896,0.384 0.192,1.28 -2.048,2.944002 -4.288,4.672002 -2.24,1.728 -4.992,2.496 -2.688,0.704 -6.08,0.704 -4.992,0 -8.896,-2.176 -3.904,-2.176 -6.208,-6.016002 -2.24,-3.904 -2.24,-8.896 0,-5.504 2.304,-9.536 2.368,-4.096 6.272,-6.336 3.904,-2.24 8.576,-2.24 4.928,0 8.64,2.176 3.712,2.112 5.824,6.08 2.176,3.968 2.176,9.664 0,0.704 -0.128,1.088 -0.128,0.384 -0.96,0.448 h -21.76 q -0.384,0 -0.576,0.256 -0.192,0.256 -0.192,0.768 z m 12.864,-6.4 q 0.704,0 0.896,-0.128 0.192,-0.192 0.192,-0.768 0,-1.6 -0.768,-3.264 -0.704,-1.664 -2.176,-2.752 -1.408,-1.152 -3.648,-1.152 -2.112,0 -3.776,1.024 -1.664,1.024 -2.56,2.88 -0.896,1.792 -0.896,4.096 z"
         style="font-weight:bold;font-size:64px;font-family:'Libre Franklin';-inkscape-font-specification:'Libre Franklin Bold';fill:#000000;fill-opacity:1"
         id="path1239" /></g><g
       aria-label="microcomputers"
       id="text511"
       style="font-weight:300;font-size:12.7px;font-family:'Libre Franklin';-inkscape-font-specification:'Libre Franklin Light';stroke-width:0.746001"><path
         d="m 44.546245,38.924816 q -0.1524,0 -0.1524,-0.1524 v -6.4389 q 0,-0.1397 0.127,-0.1397 h 0.5461 q 0.127,0 0.127,0.127 v 0.7493 q 0,0.0635 0.0254,0.0889 0.0254,0.0127 0.0889,-0.0508 0.4191,-0.3302 0.7747,-0.5588 0.3556,-0.2413 0.7112,-0.3556 0.3683,-0.127 0.8001,-0.127 0.774699,0 1.219199,0.3556 0.4445,0.3429 0.5842,0.7493 0.0254,0.0508 0.0762,0.0381 0.0508,-0.0127 0.1016,-0.0635 0.4318,-0.3429 0.7874,-0.5842 0.3683,-0.2413 0.7366,-0.3683 0.3683,-0.127 0.8001,-0.127 0.9271,0 1.4224,0.5334 0.508,0.5207 0.508,1.3716 v 4.7879 q 0,0.1651 -0.1651,0.1651 h -0.5334 q -0.0635,0 -0.1016,-0.0381 -0.0381,-0.0381 -0.0381,-0.1143 v -4.5847 q 0,-0.6731 -0.3175,-1.0414 -0.3048,-0.381 -0.9906,-0.381 -0.4064,0 -0.7747,0.1524 -0.3683,0.1397 -0.6604,0.3556 -0.2921,0.2159 -0.5207,0.4064 -0.1143,0.0889 -0.1651,0.1651 -0.0381,0.0762 -0.0381,0.2159 v 4.699 q 0,0.1651 -0.1524,0.1651 h -0.5334 q -0.0762,0 -0.1143,-0.0381 -0.0381,-0.0381 -0.0381,-0.1143 v -4.5847 q 0,-0.6731 -0.3048,-1.0414 -0.3048,-0.381 -1.003299,-0.381 -0.5715,0 -1.0414,0.2667 -0.4699,0.2667 -1.1049,0.8128 v 4.9276 q 0,0.1524 -0.1651,0.1524 z"
         style="stroke-width:0.746"
         id="path1204" /><path
         d="m 56.68745,38.734316 q 0,0.1143 -0.0381,0.1524 -0.0381,0.0381 -0.1651,0.0381 h -0.4699 q -0.1016,0 -0.1397,-0.0254 -0.0254,-0.0381 -0.0254,-0.127 v -6.4262 q 0,-0.1524 0.1397,-0.1524 h 0.5588 q 0.1397,0 0.1397,0.1524 z m 0.0508,-8.0772 q 0,0.2286 -0.1905,0.2286 h -0.5842 q -0.1016,0 -0.1397,-0.0508 -0.0254,-0.0508 -0.0254,-0.1524 v -0.9906 q 0,-0.1905 0.1651,-0.1905 h 0.6096 q 0.1651,0 0.1651,0.1778 z"
         style="stroke-width:0.746"
         id="path1206" /><path
         d="m 61.500754,32.066816 q 0.635,0 1.1049,0.1905 0.4826,0.1905 0.8509,0.5334 0.3683,0.3302 0.6223,0.762 0.0635,0.127 -0.0381,0.1651 l -0.5334,0.1778 q -0.0889,0.0381 -0.1524,-0.0635 -0.2921,-0.3937 -0.5715,-0.6223 -0.2794,-0.2413 -0.5715,-0.3556 -0.2921,-0.127 -0.6477,-0.127 -0.6985,0 -1.2319,0.3556 -0.5207,0.3429 -0.8128,0.9779 -0.2794,0.635 -0.2794,1.4986 0,0.8636 0.2921,1.5113 0.2921,0.635 0.8128,0.9779 0.5334,0.3429 1.2319,0.3429 0.635,0 1.1049,-0.3048 0.4826,-0.3048 0.8636,-0.9271 0.0381,-0.0508 0.0635,-0.0635 0.0381,-0.0127 0.0889,0.0127 l 0.4445,0.2032 q 0.0762,0.0381 0.0381,0.1524 -0.2032,0.3429 -0.4826,0.635 -0.2667,0.2921 -0.5969,0.508 -0.3302,0.2032 -0.7366,0.3175 -0.3937,0.127 -0.8636,0.127 -0.9144,0 -1.6256,-0.4318 -0.7112,-0.4445 -1.1049,-1.2192 -0.3937,-0.7874 -0.3937,-1.8161 0,-1.0287 0.3937,-1.8161 0.4064,-0.8001 1.1176,-1.2446 0.7112,-0.4572 1.6129,-0.4572 z"
         style="stroke-width:0.746"
         id="path1208" /><path
         d="m 65.806065,38.924816 q -0.0762,0 -0.1143,-0.0381 -0.0381,-0.0381 -0.0381,-0.1143 v -6.4389 q 0,-0.1397 0.127,-0.1397 h 0.5461 q 0.1143,0 0.1143,0.127 v 0.8382 q 0,0.0635 0.0381,0.0762 0.0381,0.0127 0.0889,-0.0381 0.3429,-0.4064 0.6731,-0.6477 0.3302,-0.254 0.6477,-0.3683 0.3302,-0.1143 0.6604,-0.1143 0.4572,0 0.4572,0.1524 v 0.5842 q 0,0.1016 -0.1016,0.0889 -0.0889,-0.0127 -0.2159,-0.0254 -0.1143,-0.0127 -0.2794,-0.0127 -0.2921,0 -0.6223,0.1397 -0.3302,0.127 -0.6223,0.3556 -0.2921,0.2286 -0.4826,0.508 -0.1905,0.2794 -0.1905,0.5715 v 4.3434 q 0,0.1524 -0.1651,0.1524 z"
         style="stroke-width:0.746"
         id="path1210" /><path
         d="m 72.973621,39.051816 q -0.9398,0 -1.6637,-0.4318 -0.7112,-0.4445 -1.1049,-1.2192 -0.3937,-0.7874 -0.3937,-1.8034 0,-1.0414 0.3937,-1.8288 0.4064,-0.8001 1.1176,-1.2446 0.7239,-0.4572 1.6637,-0.4572 0.9525,0 1.651,0.4445 0.7112,0.4445 1.1049,1.2446 0.3937,0.7874 0.3937,1.8161 0,1.0287 -0.4064,1.8161 -0.3937,0.7747 -1.1049,1.2192 -0.6985,0.4445 -1.651,0.4445 z m 0.0254,-0.6731 q 0.7112,0 1.2192,-0.3429 0.508,-0.3429 0.7747,-0.9779 0.2794,-0.635 0.2794,-1.4859 0,-0.8636 -0.2794,-1.4986 -0.2794,-0.6477 -0.8001,-0.9906 -0.508,-0.3556 -1.2065,-0.3556 -0.6985,0 -1.2192,0.3556 -0.5207,0.3429 -0.8128,0.9906 -0.2794,0.635 -0.2794,1.4986 0,0.8509 0.2794,1.4859 0.2921,0.635 0.8128,0.9779 0.5207,0.3429 1.2319,0.3429 z"
         style="stroke-width:0.746"
         id="path1212" /><path
         d="m 80.530116,32.066816 q 0.635,0 1.1049,0.1905 0.4826,0.1905 0.8509,0.5334 0.3683,0.3302 0.6223,0.762 0.0635,0.127 -0.0381,0.1651 l -0.5334,0.1778 q -0.0889,0.0381 -0.1524,-0.0635 -0.2921,-0.3937 -0.5715,-0.6223 -0.2794,-0.2413 -0.5715,-0.3556 -0.2921,-0.127 -0.6477,-0.127 -0.6985,0 -1.2319,0.3556 -0.5207,0.3429 -0.8128,0.9779 -0.2794,0.635 -0.2794,1.4986 0,0.8636 0.2921,1.5113 0.2921,0.635 0.8128,0.9779 0.5334,0.3429 1.2319,0.3429 0.635,0 1.1049,-0.3048 0.4826,-0.3048 0.8636,-0.9271 0.0381,-0.0508 0.0635,-0.0635 0.0381,-0.0127 0.0889,0.0127 l 0.4445,0.2032 q 0.0762,0.0381 0.0381,0.1524 -0.2032,0.3429 -0.4826,0.635 -0.2667,0.2921 -0.5969,0.508 -0.3302,0.2032 -0.7366,0.3175 -0.3937,0.127 -0.8636,0.127 -0.9144,0 -1.6256,-0.4318 -0.7112,-0.4445 -1.1049,-1.2192 -0.3937,-0.7874 -0.3937,-1.8161 0,-1.0287 0.3937,-1.8161 0.4064,-0.8001 1.1176,-1.2446 0.7112,-0.4572 1.6129,-0.4572 z"
         style="stroke-width:0.746"
         id="path1214" /><path
         d="m 87.319864,39.051816 q -0.9398,0 -1.6637,-0.4318 -0.7112,-0.4445 -1.1049,-1.2192 -0.3937,-0.7874 -0.3937,-1.8034 0,-1.0414 0.3937,-1.8288 0.4064,-0.8001 1.1176,-1.2446 0.7239,-0.4572 1.6637,-0.4572 0.9525,0 1.651,0.4445 0.7112,0.4445 1.1049,1.2446 0.3937,0.7874 0.3937,1.8161 0,1.0287 -0.4064,1.8161 -0.3937,0.7747 -1.1049,1.2192 -0.6985,0.4445 -1.651,0.4445 z m 0.0254,-0.6731 q 0.7112,0 1.2192,-0.3429 0.508,-0.3429 0.7747,-0.9779 0.2794,-0.635 0.2794,-1.4859 0,-0.8636 -0.2794,-1.4986 -0.2794,-0.6477 -0.8001,-0.9906 -0.508,-0.3556 -1.2065,-0.3556 -0.6985,0 -1.2192,0.3556 -0.5207,0.3429 -0.8128,0.9906 -0.2794,0.635 -0.2794,1.4986 0,0.8509 0.2794,1.4859 0.2921,0.635 0.8128,0.9779 0.5207,0.3429 1.2319,0.3429 z"
         style="stroke-width:0.746"
         id="path1216" /><path
         d="m 92.323657,38.924816 q -0.1524,0 -0.1524,-0.1524 v -6.4389 q 0,-0.1397 0.127,-0.1397 h 0.5461 q 0.127,0 0.127,0.127 v 0.7493 q 0,0.0635 0.0254,0.0889 0.0254,0.0127 0.0889,-0.0508 0.4191,-0.3302 0.7747,-0.5588 0.3556,-0.2413 0.7112,-0.3556 0.3683,-0.127 0.8001,-0.127 0.7747,0 1.2192,0.3556 0.4445,0.3429 0.5842,0.7493 0.0254,0.0508 0.0762,0.0381 0.0508,-0.0127 0.1016,-0.0635 0.4318,-0.3429 0.7874,-0.5842 0.3683,-0.2413 0.7366,-0.3683 0.3683,-0.127 0.8001,-0.127 0.927103,0 1.422403,0.5334 0.508,0.5207 0.508,1.3716 v 4.7879 q 0,0.1651 -0.1651,0.1651 h -0.5334 q -0.0635,0 -0.1016,-0.0381 -0.0381,-0.0381 -0.0381,-0.1143 v -4.5847 q 0,-0.6731 -0.3175,-1.0414 -0.3048,-0.381 -0.990603,-0.381 -0.4064,0 -0.7747,0.1524 -0.3683,0.1397 -0.6604,0.3556 -0.2921,0.2159 -0.5207,0.4064 -0.1143,0.0889 -0.1651,0.1651 -0.0381,0.0762 -0.0381,0.2159 v 4.699 q 0,0.1651 -0.1524,0.1651 h -0.5334 q -0.0762,0 -0.1143,-0.0381 -0.0381,-0.0381 -0.0381,-0.1143 v -4.5847 q 0,-0.6731 -0.3048,-1.0414 -0.3048,-0.381 -1.0033,-0.381 -0.5715,0 -1.0414,0.2667 -0.4699,0.2667 -1.1049,0.8128 v 4.9276 q 0,0.1524 -0.1651,0.1524 z"
         style="stroke-width:0.746"
         id="path1218" /><path
         d="m 104.28706,32.193816 q 0.1524,0 0.1524,0.1651 v 0.5842 q 0,0.1016 0.0381,0.1143 0.0508,0.0127 0.127,-0.0635 0.127,-0.1397 0.3556,-0.3556 0.2413,-0.2159 0.6477,-0.3937 0.4064,-0.1778 1.016,-0.1778 0.8001,0 1.4351,0.381 0.635,0.3683 1.016,1.1176 0.381,0.7366 0.381,1.8796 0,1.1176 -0.3683,1.9304 -0.3683,0.8001 -1.0414,1.2446 -0.6604,0.4318 -1.5621,0.4318 -0.6096,0 -1.0668,-0.1905 -0.4572,-0.1905 -0.762,-0.4445 -0.1143,-0.1016 -0.1524,-0.0762 -0.0381,0.0254 -0.0381,0.1651 v 2.3622 q 0,0.1524 -0.1397,0.1524 h -0.5715 q -0.127,0 -0.127,-0.1397 v -8.509 q 0,-0.1016 0.0381,-0.1397 0.0381,-0.0381 0.1397,-0.0381 z m 0.1778,5.3086 q 0.4191,0.4191 0.8636,0.6604 0.4445,0.2413 0.9779,0.2413 0.6731,0 1.1811,-0.3429 0.508,-0.3429 0.8001,-0.9906 0.3048,-0.6477 0.3048,-1.5875 0,-0.9779 -0.3048,-1.5748 -0.3048,-0.6096 -0.8128,-0.9017 -0.4953,-0.2921 -1.0795,-0.2921 -0.5715,0 -1.016,0.254 -0.4318,0.254 -0.6731,0.6223 -0.2413,0.3556 -0.2413,0.7112 z"
         style="stroke-width:0.746"
         id="path1220" /><path
         d="m 113.31676,38.353316 q 0.5969,0 1.1303,-0.3175 0.5461,-0.3175 1.0922,-0.8763 v -4.8133 q 0,-0.1524 0.1651,-0.1524 h 0.5334 q 0.1397,0 0.1397,0.1524 v 6.4389 q 0,0.1397 -0.127,0.1397 h -0.5461 q -0.127,0 -0.127,-0.127 v -0.7747 q 0,-0.0635 -0.0254,-0.0762 -0.0254,-0.0127 -0.0889,0.0381 -0.7366,0.6223 -1.2827,0.8509 -0.5334,0.2159 -1.0541,0.2159 -0.5842,0 -1.0541,-0.2286 -0.4572,-0.2413 -0.7366,-0.6731 -0.2667,-0.4445 -0.2667,-1.0033 v -4.7879 q 0,-0.1651 0.1651,-0.1651 h 0.5334 q 0.1397,0 0.1397,0.1524 v 4.5212 q 0,0.6604 0.3683,1.0795 0.381,0.4064 1.0414,0.4064 z"
         style="stroke-width:0.746"
         id="path1222" /><path
         d="m 119.99696,32.841516 q -0.1016,0 -0.1016,0.1016 v 4.2672 q 0,0.6477 0.2032,0.8509 0.2032,0.2032 0.5969,0.2032 h 0.9271 q 0.0635,0 0.0889,0.0381 0.0381,0.0254 0.0381,0.0889 v 0.3429 q 0,0.1016 -0.127,0.1397 -0.1143,0.0127 -0.3429,0.0254 -0.2159,0.0127 -0.4318,0.0254 -0.2159,0 -0.3302,0 -0.7874,0 -1.1303,-0.3556 -0.3302,-0.3683 -0.3302,-1.1811 v -4.4323 q 0,-0.1143 -0.1143,-0.1143 h -1.0795 q -0.1143,0 -0.1143,-0.1016 v -0.4445 q 0,-0.1016 0.1016,-0.1016 h 1.1303 q 0.0762,0 0.0889,-0.1016 l 0.127,-2.032 q 0,-0.1524 0.1143,-0.1524 h 0.4572 q 0.1397,0 0.1397,0.1651 v 2.0193 q 0,0.1016 0.0889,0.1016 h 1.6764 q 0.1016,0 0.1016,0.1016 v 0.4445 q 0,0.1016 -0.1143,0.1016 z"
         style="stroke-width:0.746"
         id="path1224" /><path
         d="m 123.55772,35.940316 q 0,0.6477 0.3175,1.2065 0.3175,0.5588 0.8382,0.9017 0.5334,0.3302 1.1938,0.3302 0.6985,0 1.2065,-0.2794 0.5207,-0.2794 0.8763,-0.8255 0.0381,-0.0635 0.0762,-0.0635 0.0381,-0.0127 0.0889,0.0127 l 0.4318,0.2413 q 0.1016,0.0508 0.0127,0.1524 -0.3175,0.4826 -0.7239,0.8001 -0.3937,0.3175 -0.9017,0.4826 -0.508,0.1524 -1.1176,0.1524 -0.9398,0 -1.651,-0.4318 -0.7112,-0.4318 -1.1176,-1.2065 -0.4064,-0.7874 -0.4064,-1.7907 0,-1.1176 0.4191,-1.905 0.4191,-0.7874 1.1303,-1.2192 0.7112,-0.4318 1.6129,-0.4318 0.9144,0 1.5875,0.4064 0.6731,0.4064 1.0414,1.1684 0.3683,0.762 0.3683,1.8415 0,0.0889 -0.0254,0.1778 -0.0127,0.0889 -0.1524,0.0889 h -5.0165 q -0.0381,0 -0.0635,0.0635 -0.0254,0.0508 -0.0254,0.127 z m 4.2164,-0.7874 q 0.1397,0 0.1778,-0.0381 0.0381,-0.0381 0.0381,-0.1397 0,-0.6096 -0.2667,-1.1176 -0.254,-0.5207 -0.7366,-0.8255 -0.4699,-0.3175 -1.1303,-0.3175 -0.7493,0 -1.2573,0.3683 -0.508,0.3556 -0.7747,0.9144 -0.254,0.5588 -0.254,1.1557 z"
         style="stroke-width:0.746"
         id="path1226" /><path
         d="m 130.60623,38.924816 q -0.0762,0 -0.1143,-0.0381 -0.0381,-0.0381 -0.0381,-0.1143 v -6.4389 q 0,-0.1397 0.127,-0.1397 h 0.5461 q 0.1143,0 0.1143,0.127 v 0.8382 q 0,0.0635 0.0381,0.0762 0.0381,0.0127 0.0889,-0.0381 0.3429,-0.4064 0.6731,-0.6477 0.3302,-0.254 0.6477,-0.3683 0.3302,-0.1143 0.6604,-0.1143 0.4572,0 0.4572,0.1524 v 0.5842 q 0,0.1016 -0.1016,0.0889 -0.0889,-0.0127 -0.2159,-0.0254 -0.1143,-0.0127 -0.2794,-0.0127 -0.2921,0 -0.6223,0.1397 -0.3302,0.127 -0.6223,0.3556 -0.2921,0.2286 -0.4826,0.508 -0.1905,0.2794 -0.1905,0.5715 v 4.3434 q 0,0.1524 -0.1651,0.1524 z"
         style="stroke-width:0.746"
         id="path1228" /><path
         d="m 139.06442,33.616216 q -0.2794,-0.4064 -0.762,-0.6477 -0.4699,-0.254 -1.1303,-0.254 -0.7366,0 -1.2319,0.3175 -0.4826,0.3048 -0.4826,0.8509 0,0.2921 0.2159,0.5588 0.2286,0.254 0.9017,0.4699 l 1.651,0.508 q 0.8255,0.2413 1.2065,0.6858 0.381,0.4318 0.381,1.016 0,0.5715 -0.3556,1.0033 -0.3429,0.4318 -0.9525,0.6858 -0.6096,0.2413 -1.3716,0.2413 -0.9652,0 -1.7145,-0.3937 -0.7366,-0.3937 -1.0541,-1.016 -0.0254,-0.0508 -0.0254,-0.0889 0,-0.0381 0.0508,-0.0762 l 0.4064,-0.2413 q 0.0508,-0.0254 0.0889,-0.0127 0.0508,0 0.0762,0.0381 0.2159,0.3429 0.5207,0.5969 0.3048,0.254 0.7112,0.3937 0.4191,0.1397 0.9525,0.1397 0.5207,0 0.9398,-0.1397 0.4191,-0.1524 0.6604,-0.4191 0.254,-0.2667 0.254,-0.6223 0,-0.381 -0.3175,-0.6477 -0.3048,-0.2794 -1.0414,-0.4826 l -1.2954,-0.381 q -0.9652,-0.2794 -1.3335,-0.6985 -0.3556,-0.4318 -0.3556,-0.9652 0,-0.5969 0.3175,-1.0287 0.3302,-0.4445 0.9017,-0.6858 0.5715,-0.254 1.3081,-0.254 0.8255,0 1.4732,0.3175 0.6477,0.3175 1.0033,0.8636 0.0381,0.0381 0.0381,0.0762 0,0.0381 -0.0508,0.0635 l -0.4318,0.254 q -0.0381,0.0127 -0.0762,0.0127 -0.0381,0 -0.0762,-0.0381 z"
         style="stroke-width:0.746"
         id="path1230" /></g></g></svg>
